<?xml version="1.0" encoding="UTF-8" standalone="no"?>
<svg
   xmlns:dc="http://purl.org/dc/elements/1.1/"
   xmlns:cc="http://creativecommons.org/ns#"
   xmlns:rdf="http://www.w3.org/1999/02/22-rdf-syntax-ns#"
   xmlns:svg="http://www.w3.org/2000/svg"
   xmlns="http://www.w3.org/2000/svg"
   width="19.538464mm"
   height="5.291666mm"
   viewBox="0 0 19.538463 5.2916661"
   version="1.1"
   id="svg8">
  <defs
     id="defs2">
    <pattern
       id="EMFhbasepattern"
       patternUnits="userSpaceOnUse"
       width="6"
       height="6"
       x="0"
       y="0" />
  </defs>
  <metadata
     id="metadata5">
    <rdf:RDF>
      <cc:Work
         rdf:about="">
        <dc:format>image/svg+xml</dc:format>
        <dc:type
           rdf:resource="http://purl.org/dc/dcmitype/StillImage" />
        <dc:title></dc:title>
      </cc:Work>
    </rdf:RDF>
  </metadata>
  <g
     id="layer1"
     transform="translate(-25.70238,-213.36756)">
    <g
       id="g48"
       transform="matrix(0.38461542,0,0,0.38461542,15.816849,131.30311)">
      <path
         style="fill:#ffffff;fill-opacity:1;fill-rule:nonzero;stroke:none;stroke-width:0.105833"
         d="m 35.474325,219.25895 c -4.268611,0 -4.268611,0 -4.268611,0 -0.105833,0 -0.211667,0.0706 -0.211667,0.21166 0,2.0814 0,2.0814 0,2.0814 0,0.10582 0.105834,0.17638 0.211667,0.17638 1.658055,0 1.658055,0 1.658055,0 0,2.61056 0,2.61056 0,2.61056 0,0 -0.352777,0.14111 -1.411111,0.14111 -1.199444,0 -2.928055,-0.45861 -2.928055,-4.19805 0,-3.77472 1.799166,-4.26862 3.457222,-4.26862 1.446389,0 2.081389,0.28222 2.469444,0.38806 0.105834,0.0353 0.211667,-0.0706 0.211667,-0.17639 0.493889,-2.04611 0.493889,-2.04611 0.493889,-2.04611 0,-0.0353 0,-0.10584 -0.07056,-0.14112 -0.176389,-0.10582 -1.128889,-0.67027 -3.633611,-0.67027 -2.822222,0 -5.750277,1.23473 -5.750277,7.05555 0,5.82084 3.351388,6.70278 6.173611,6.70278 2.328333,0 3.739443,-0.98778 3.739443,-0.98778 0.07056,-0.0353 0.07056,-0.1411 0.07056,-0.17638 0,-6.49112 0,-6.49112 0,-6.49112 0,-0.1411 -0.105834,-0.21166 -0.211666,-0.21166 z"
         id="path13" />
      <path
         style="fill:#ffffff;fill-opacity:1;fill-rule:nonzero;stroke:none;stroke-width:0.105833"
         d="m 57.487654,214.07311 c 0,-0.10582 -0.07055,-0.21166 -0.211664,-0.21166 -2.398889,0 -2.398889,0 -2.398889,0 -0.105833,0 -0.176389,0.10584 -0.176389,0.21166 0,0 0,4.65668 0,4.65668 -3.774723,0 -3.774723,0 -3.774723,0 0,-4.65668 0,-4.65668 0,-4.65668 0,-0.10582 -0.07055,-0.21166 -0.176388,-0.21166 -2.398889,0 -2.398889,0 -2.398889,0 -0.14111,0 -0.211666,0.10584 -0.211666,0.21166 0,12.59418 0,12.59418 0,12.59418 0,0.10582 0.07056,0.17638 0.211666,0.17638 2.398889,0 2.398889,0 2.398889,0 0.105834,0 0.176388,-0.0706 0.176388,-0.17638 0,-5.3975 0,-5.3975 0,-5.3975 3.774723,0 3.774723,0 3.774723,0 0,0 -0.03527,5.3975 -0.03527,5.3975 0,0.10582 0.105834,0.17638 0.211667,0.17638 2.398888,0 2.398888,0 2.398888,0 0.141112,0 0.211668,-0.0706 0.211668,-0.17638 z"
         id="path15" />
      <path
         style="fill:#ffffff;fill-opacity:1;fill-rule:nonzero;stroke:none;stroke-width:0.105833"
         d="m 40.025158,215.73117 c 0,-0.88194 -0.705556,-1.5875 -1.552222,-1.5875 -0.846667,0 -1.552223,0.70556 -1.552223,1.5875 0,0.84666 0.705556,1.55222 1.552223,1.55222 0.846666,0 1.552222,-0.70556 1.552222,-1.55222 z"
         id="path17" />
      <path
         style="fill:#ffffff;fill-opacity:1;fill-rule:nonzero;stroke:none;stroke-width:0.105833"
         d="m 39.848769,223.98617 c 0,-0.3175 0,-5.78556 0,-5.78556 0,-0.10582 -0.105833,-0.21166 -0.211667,-0.21166 -2.398889,0 -2.398889,0 -2.398889,0 -0.105833,0 -0.211666,0.10584 -0.211666,0.21166 0,0 0,7.02028 0,8.32556 0,0.24694 0.176389,0.3175 0.352777,0.3175 0,0 1.023056,0 2.187222,0 0.211667,0 0.282223,-0.10584 0.282223,-0.3175 0,-0.42334 0,-2.18722 0,-2.54 z"
         id="path19" />
      <path
         style="fill:#ffffff;fill-opacity:1;fill-rule:nonzero;stroke:none;stroke-width:0.105833"
         d="m 66.624601,218.02423 c -2.398892,0 -2.398892,0 -2.398892,0 -0.105832,0 -0.176388,0.0706 -0.176388,0.17638 0,6.17362 0,6.17362 0,6.17362 0,0 -0.599719,0.4586 -1.481667,0.4586 -0.846664,0 -1.093608,-0.38804 -1.093608,-1.23472 0,-0.84666 0,-5.3975 0,-5.3975 0,-0.10582 -0.07056,-0.17638 -0.176392,-0.17638 -2.434164,0 -2.434164,0 -2.434164,0 -0.105836,0 -0.211668,0.0706 -0.211668,0.17638 0,0 0,3.31612 0,5.78556 0,2.50472 1.411112,3.13972 3.316112,3.13972 1.5875,0 2.857499,-0.88194 2.857499,-0.88194 0,0 0.07056,0.45861 0.105832,0.52916 0,0.0353 0.07056,0.10584 0.141112,0.10584 1.552224,0 1.552224,0 1.552224,0 0.105832,0 0.211664,-0.10584 0.211664,-0.21166 0,-8.46668 0,-8.46668 0,-8.46668 0,-0.10582 -0.105832,-0.17638 -0.211664,-0.17638 z"
         id="path21" />
      <path
         style="fill:#ffffff;fill-opacity:1;fill-rule:nonzero;stroke:none;stroke-width:0.105833"
         d="m 73.150989,217.74201 c -1.340556,0 -2.293056,0.59972 -2.293056,0.59972 0,-4.26862 0,-4.26862 0,-4.26862 0,-0.10582 -0.07056,-0.21166 -0.176388,-0.21166 -2.434168,0 -2.434168,0 -2.434168,0 -0.105832,0 -0.176388,0.10584 -0.176388,0.21166 0,12.59418 0,12.59418 0,12.59418 0,0.10582 0.07056,0.17638 0.176388,0.17638 0,0 1.693332,0 1.693332,0 0.07056,0 0.141112,-0.0353 0.176392,-0.10584 0.03528,-0.0705 0.105832,-0.56444 0.105832,-0.56444 0,0 0.987776,0.91722 2.8575,0.91722 2.187216,0 3.421943,-1.0936 3.421943,-4.97416 0,-3.88056 -2.010831,-4.37444 -3.351387,-4.37444 z m -0.9525,7.09082 c -0.811388,-0.0353 -1.375836,-0.42332 -1.375836,-0.42332 0,-3.9864 0,-3.9864 0,-3.9864 0,0 0.564448,-0.3175 1.234724,-0.38805 0.846668,-0.0705 1.693332,0.17639 1.693332,2.2225 0,2.18723 -0.388056,2.61055 -1.55222,2.57527 z"
         id="path23" />
      <path
         style="fill:#ffffff;fill-opacity:1;fill-rule:nonzero;stroke:none;stroke-width:0.105833"
         d="m 46.763212,217.98895 c -1.799166,0 -1.799166,0 -1.799166,0 0,0 0,-2.36362 0,-2.36362 0,-0.10582 -0.07056,-0.1411 -0.176389,-0.1411 -2.434167,0 -2.434167,0 -2.434167,0 -0.105833,0 -0.176388,0.0353 -0.176388,0.10583 0,2.46945 0,2.46945 0,2.46945 0,0 -1.199444,0.3175 -1.305278,0.3175 -0.07055,0.0353 -0.141111,0.10582 -0.141111,0.21166 0,1.55222 0,1.55222 0,1.55222 0,0.10584 0.105833,0.1764 0.211667,0.1764 1.234722,0 1.234722,0 1.234722,0 0,0 0,1.62277 0,3.73944 0,2.75166 1.940277,3.03388 3.280833,3.03388 0.599722,0 1.305277,-0.17638 1.411111,-0.24694 0.07056,0 0.105833,-0.0706 0.105833,-0.17638 0,-1.69334 0,-1.69334 0,-1.69334 0,-0.10584 -0.07056,-0.21166 -0.176389,-0.21166 -0.105833,0 -0.388055,0.0705 -0.670278,0.0705 -0.881943,0 -1.164166,-0.42332 -1.164166,-0.9525 0,-0.52916 0,-3.56304 0,-3.56304 1.799166,0 1.799166,0 1.799166,0 0.105834,0 0.17639,-0.0706 0.17639,-0.1764 0,-1.94028 0,-1.94028 0,-1.94028 0,-0.10582 -0.07056,-0.21166 -0.17639,-0.21166 z"
         id="path25" />
    </g>
  </g>
</svg>
